HIERARCHY
ROOT SpineBase
{
  OFFSET 0.000000 0.000000 0.000000
  CHANNELS 6 Xposition Yposition Zposition Zrotation Xrotation Yrotation
  JOINT SpineMid
  {
    OFFSET 0.000000 27.329350 0.000000
    CHANNELS 3 Zrotation Xrotation Yrotation
    JOINT SpineShoulder
    {
      OFFSET -0.023611 20.298936 -0.569993
      CHANNELS 3 Zrotation Xrotation Yrotation
      JOINT Neck
      {
        OFFSET -0.030606 6.719659 -0.460497
        CHANNELS 3 Zrotation Xrotation Yrotation
        JOINT Head
        {
          OFFSET -2.360898 12.222054 -0.148610
          CHANNELS 3 Zrotation Xrotation Yrotation
          End Site
          {
            OFFSET 0 0 0
          }
        }
      }
      JOINT ShoulderLeft
      {
        OFFSET -11.784551 -6.516760 4.363421
        CHANNELS 3 Zrotation Xrotation Yrotation
        JOINT ElbowLeft
        {
          OFFSET -3.005683 -18.867159 4.935302
          CHANNELS 3 Zrotation Xrotation Yrotation
          JOINT WristLeft
          {
            OFFSET 0.322139 -19.898364 1.814324
            CHANNELS 3 Zrotation Xrotation Yrotation
            JOINT HandLeft
            {
              OFFSET -0.685223 -12.898645 1.574818
              CHANNELS 3 Zrotation Xrotation Yrotation
              JOINT HandTipLeft
              {
                OFFSET 0.697872 -6.013644 -3.087086
                CHANNELS 3 Zrotation Xrotation Yrotation
                End Site
                {
                  OFFSET 0 0 0
                }
              }
              JOINT ThumbLeft
              {
                OFFSET 1.425096 -1.441409 -5.534634
                CHANNELS 3 Zrotation Xrotation Yrotation
                End Site
                {
                  OFFSET 0 0 0
                }
              }
            }
          }
        }
      }
      JOINT ShoulderRight
      {
        OFFSET 8.993249 -4.682078 -11.605076
        CHANNELS 3 Zrotation Xrotation Yrotation
        JOINT ElbowRight
        {
          OFFSET 6.156726 -18.382416 -4.783376
          CHANNELS 3 Zrotation Xrotation Yrotation
          JOINT WristRight
          {
            OFFSET -17.611689 -5.176139 -9.595975
            CHANNELS 3 Zrotation Xrotation Yrotation
            JOINT HandRight
            {
              OFFSET -4.300452 -0.836562 -1.434172
              CHANNELS 3 Zrotation Xrotation Yrotation
              JOINT HandTipRight
              {
                OFFSET -4.540239 -1.536900 -0.620816
                CHANNELS 3 Zrotation Xrotation Yrotation
                End Site
                {
                  OFFSET 0 0 0
                }
              }
              JOINT ThumbRight
              {
                OFFSET -2.366670 0.504671 -0.299318
                CHANNELS 3 Zrotation Xrotation Yrotation
                End Site
                {
                  OFFSET 0 0 0
                }
              }
            }
          }
        }
      }
    }
  }
  JOINT HipLeft
  {
    OFFSET -5.161664 0.393255 0.479717
    CHANNELS 3 Zrotation Xrotation Yrotation
    JOINT KneeLeft
    {
      OFFSET -1.133984 -20.577466 9.461660
      CHANNELS 3 Zrotation Xrotation Yrotation
      JOINT AnkleLeft
      {
        OFFSET 11.534300 -40.104846 9.799036
        CHANNELS 3 Zrotation Xrotation Yrotation
        JOINT FootLeft
        {
          OFFSET -2.234366 -9.247817 -1.193439
          CHANNELS 3 Zrotation Xrotation Yrotation
          End Site
          {
            OFFSET 0 0 0
          }
        }
      }
    }
  }
  JOINT HipRight
  {
    OFFSET 4.734302 0.686465 -6.789213
    CHANNELS 3 Zrotation Xrotation Yrotation
    JOINT KneeRight
    {
      OFFSET 5.843572 -27.340545 4.553249
      CHANNELS 3 Zrotation Xrotation Yrotation
      JOINT AnkleRight
      {
        OFFSET 6.650891 -35.638860 10.630384
        CHANNELS 3 Zrotation Xrotation Yrotation
        JOINT FootRight
        {
          OFFSET -5.085713 -3.290180 -9.198889
          CHANNELS 3 Zrotation Xrotation Yrotation
          End Site
          {
            OFFSET 0 0 0
          }
        }
      }
    }
  }
}
MOTION
Frames: 12
Frame Time: 0.033333
27.531873 70.166754 365.799847 -0.000000 0.000000 36.298572 0.000000 0.000000 -36.298572 -0.000000 0.000000 0.000000 -0.000000 0.000000 0.000000 0.000000 0.000000 0.000000 -0.000000 0.000000 0.000000 -0.000000 0.000000 0.000000 -0.000000 0.000000 0.000000 -0.000000 0.000000 0.000000 0.000000 0.000000 0.000000 0.000000 0.000000 0.000000 -0.000000 0.000000 0.000000 -0.000000 0.000000 0.000000 -0.000000 0.000000 0.000000 -0.000000 0.000000 0.000000 0.000000 0.000000 0.000000 0.000000 0.000000 0.000000 0.000000 0.000000 -36.298572 -0.000000 0.000000 0.000000 -0.000000 0.000000 0.000000 0.000000 0.000000 0.000000 0.000000 0.000000 -36.298572 -0.000000 0.000000 0.000000 -0.000000 0.000000 0.000000 0.000000 0.000000 0.000000
27.523681 70.252295 365.800201 -0.058206 0.081962 36.381543 -0.001756 -0.100511 -36.381503 -0.000000 0.000000 0.000000 -0.000000 0.000000 0.000000 0.000000 0.000000 0.000000 -0.000000 0.000000 0.000000 -0.000000 0.000000 0.000000 -0.667000 -2.411808 0.032572 0.904064 -0.240339 -0.500140 0.000000 0.000000 0.000000 0.000000 0.000000 0.000000 -0.659377 0.961269 0.498943 0.651074 -0.966912 -0.487917 -1.396507 1.129106 -3.145446 2.592771 -1.848183 5.367891 0.000000 0.000000 0.000000 0.000000 0.000000 0.000000 3.355113 -0.569705 -35.069515 -3.933855 -1.852483 -1.677412 -1.555758 3.221186 0.008409 0.000000 0.000000 0.000000 -0.001756 -0.100511 -36.381503 -0.000000 0.000000 0.000000 3.019758 -7.198117 3.682870 0.000000 0.000000 0.000000
27.514943 70.319721 365.803892 -0.113735 0.146585 36.470344 0.004331 -0.185483 -36.470192 -0.000000 0.000000 0.000000 -0.000000 0.000000 0.000000 0.000000 0.000000 0.000000 -0.000000 0.000000 0.000000 -0.087872 -1.201633 -0.028361 -1.127440 -3.160664 0.088597 1.585065 -1.067794 -0.981865 0.000000 0.000000 0.000000 0.000000 0.000000 0.000000 -1.135803 1.735373 0.893456 0.584522 -1.667599 -0.174327 -1.922981 2.120943 -6.721779 4.980232 -3.214772 10.173235 0.000000 0.000000 0.000000 0.000000 0.000000 0.000000 5.626622 -0.926463 -34.254568 -6.751274 -3.081234 -2.935973 -3.099887 6.151303 0.114874 0.000000 0.000000 0.000000 -0.345696 -1.260279 -36.643904 -0.360650 1.071275 0.172667 6.463160 -13.969623 7.712417 0.000000 0.000000 0.000000
27.505657 70.369031 365.810922 -0.166549 0.193691 36.565089 0.018381 -0.254788 -36.564766 -0.000000 0.000000 0.000000 0.590215 -0.923063 -0.166197 0.000000 0.000000 0.000000 -0.000000 0.000000 0.000000 -0.177395 -1.773377 -0.047566 -1.473184 -4.088009 0.117690 2.022935 -2.455338 -1.412401 0.000000 0.000000 0.000000 0.000000 0.000000 0.000000 -1.432147 2.334529 1.182505 0.717329 -2.244435 -0.287448 -2.475303 2.977209 -9.351731 6.985083 -4.113143 14.174244 0.000000 0.000000 0.000000 0.000000 0.000000 0.000000 7.114546 -1.150731 -33.754374 -8.662241 -3.873703 -3.814779 -4.553383 8.648009 0.272787 0.000000 0.000000 0.000000 -0.452753 -1.628359 -36.794385 -0.445445 1.382104 0.227249 9.668473 -19.208593 11.362606 0.000000 0.000000 0.000000
27.495825 70.400226 365.821289 -0.216610 0.223108 36.665745 0.040523 -0.308310 -36.665215 -0.000000 0.000000 0.000000 0.966319 -1.202764 -0.210081 0.000000 0.000000 0.000000 -0.000000 0.000000 0.000000 -0.297461 -2.325653 -0.070688 -1.678387 -4.595226 0.144626 2.197156 -4.368528 -1.765198 0.000000 0.000000 0.000000 0.000000 0.000000 0.000000 -1.549660 2.767484 1.365321 0.753960 -2.658185 -0.422922 -2.743650 3.587554 -11.352997 8.477485 -4.601328 17.188856 0.000000 0.000000 0.000000 0.000000 0.000000 0.000000 7.996856 -1.282286 -33.507061 -9.782908 -4.335178 -4.340530 -5.830120 10.586669 0.421696 0.000000 0.000000 0.000000 -0.520471 -1.843407 -36.931966 -0.785286 2.495290 0.356504 12.097495 -23.089228 13.823834 0.000000 0.000000 0.000000
27.485446 70.413306 365.834994 -0.263881 0.234673 36.772130 0.070894 -0.345945 -36.771376 -0.000000 0.000000 0.000000 1.436705 -1.471036 -0.247617 0.000000 0.000000 0.000000 -0.000000 0.000000 0.000000 -0.448192 -2.858403 -0.098116 -1.746264 -4.692334 0.172254 2.085216 -6.768148 -2.020404 0.000000 0.000000 0.000000 0.000000 0.000000 0.000000 -1.487793 3.039459 1.441112 0.697480 -2.912645 -0.582374 -2.755703 3.913916 -12.676814 9.391057 -4.755951 19.114564 0.000000 0.000000 0.000000 0.000000 0.000000 0.000000 8.374268 -1.339334 -33.476785 -10.175270 -4.522079 -4.529694 -6.846307 11.868776 0.499908 0.000000 0.000000 0.000000 -0.550783 -1.914894 -37.057395 -0.728259 2.694133 0.408957 12.338064 -23.600446 14.162991 0.000000 0.000000 0.000000
27.464065 70.428088 365.843151 -0.333366 0.196461 36.971635 0.148186 -0.357451 -36.970601 -0.000000 0.000000 0.000000 2.113957 -1.732740 -0.276021 0.000000 0.000000 0.000000 -0.031154 1.334967 -0.221130 -0.681758 -4.663049 0.064295 -1.497449 -3.944428 0.199584 1.553576 -10.695376 -2.213121 0.000000 0.000000 0.000000 0.000000 0.000000 0.000000 -1.406417 3.181906 1.466376 0.683051 -3.021765 -0.844792 -2.337616 3.740892 -12.891258 9.805173 -4.902791 20.856825 0.000000 0.000000 0.000000 0.000000 0.000000 0.000000 8.253291 -1.299591 -33.775003 -9.706145 -4.392822 -4.309160 -5.143254 15.054362 -0.631013 0.000000 0.000000 0.000000 -0.561217 -2.033385 -37.288219 -0.752213 3.117498 0.488764 9.342910 -19.671294 10.992687 0.000000 0.000000 0.000000
27.455625 70.405530 365.864117 -0.372896 0.154383 37.131152 0.204106 -0.348176 -37.130030 -0.000000 0.000000 0.000000 2.883294 -1.909506 -0.284321 0.000000 0.000000 0.000000 0.007674 1.968021 -0.313085 -0.979875 -5.945200 0.090039 -1.101300 -3.536053 0.268783 -0.345244 -18.556245 -2.654699 0.000000 0.000000 0.000000 0.000000 0.000000 0.000000 -0.765329 3.100283 1.252412 0.698450 -3.116017 -1.212703 -2.416639 3.869421 -13.377155 9.056196 -3.963157 18.665105 0.000000 0.000000 0.000000 0.000000 0.000000 0.000000 7.506381 -1.187403 -34.274031 -8.362710 -3.865251 -3.673957 -7.480900 12.141326 0.005792 0.000000 0.000000 0.000000 -0.397699 -1.423363 -37.371496 -0.173231 2.409143 0.458426 4.748222 -12.197549 6.060946 0.000000 0.000000 0.000000
27.453517 70.354496 365.900735 -0.403148 0.117209 37.174348 0.250410 -0.336989 -37.173199 -0.000000 0.000000 0.000000 3.689118 -2.010332 -0.276966 0.000000 0.000000 0.000000 0.059610 2.518030 -0.389192 -1.307313 -7.029998 0.091871 -0.825173 -2.781161 0.298272 -2.021476 -20.770116 -2.227970 0.000000 0.000000 0.000000 0.000000 0.000000 0.000000 -0.054615 2.799747 0.947542 0.008336 -2.800267 -0.946003 -1.812262 3.416030 -12.668221 8.151475 -3.144564 15.582206 0.000000 0.000000 0.000000 0.000000 0.000000 0.000000 5.665286 -0.897556 -35.101685 -5.569183 -2.773052 -2.402883 -10.116499 8.773928 0.400849 0.000000 0.000000 0.000000 -0.475841 -1.188503 -37.431965 0.272206 2.416414 0.550284 4.202089 -11.579907 5.327876 0.000000 0.000000 0.000000
27.443286 70.284655 365.931908 -0.419935 0.108153 37.218057 0.268999 -0.340121 -37.216862 -0.000000 0.000000 0.000000 4.472418 -2.220164 -0.285580 0.000000 0.000000 0.000000 0.054737 3.284870 -0.514595 -1.423652 -8.173337 0.163906 -0.425086 -1.392887 0.309718 -0.918973 -15.837036 -1.790518 0.000000 0.000000 0.000000 0.000000 0.000000 0.000000 0.510576 2.547079 0.703878 -0.542351 -2.540508 -0.727255 -1.504622 3.286531 -12.732234 7.270800 -2.275336 12.582364 0.000000 0.000000 0.000000 0.000000 0.000000 0.000000 5.684300 -1.053438 -35.089876 -4.842224 -2.529368 -2.168045 -14.621060 6.696154 1.095240 0.000000 0.000000 0.000000 -0.421860 -0.934844 -37.446580 0.549999 2.128871 0.552093 1.309372 -5.613916 2.046143 0.000000 0.000000 0.000000
27.430650 70.198867 365.943440 -0.405815 0.119356 37.091734 0.251728 -0.339949 -37.090564 -0.000000 0.000000 0.000000 5.006832 -2.522208 -0.313347 0.000000 0.000000 0.000000 0.048749 3.933091 -0.621357 -1.367549 -9.231899 0.250442 -0.187130 -0.181848 0.314546 2.222440 -4.315928 -1.715678 0.000000 0.000000 0.000000 0.000000 0.000000 0.000000 0.814107 2.546687 0.618095 -0.664682 -2.405787 -1.430800 -1.743255 3.263971 -12.501118 6.344211 -2.278786 12.598318 0.000000 0.000000 0.000000 0.000000 0.000000 0.000000 5.454676 -1.045709 -35.038837 -4.666046 -2.409422 -2.086948 -16.184211 4.292733 1.612267 0.000000 0.000000 0.000000 0.251728 -0.339949 -37.090564 0.539684 1.053073 0.353204 -1.316788 0.937573 -1.189798 0.000000 0.000000 0.000000
27.425897 70.123175 365.978222 -0.375423 0.118283 36.992583 0.228687 -0.320369 -36.991557 -0.000000 0.000000 0.000000 5.425761 -2.967040 -0.363179 0.000000 0.000000 0.000000 0.140606 3.789533 -0.576893 -1.478993 -9.004330 0.202966 0.463058 1.920240 0.265974 0.411641 -2.022908 -0.433690 0.000000 0.000000 0.000000 0.000000 0.000000 0.000000 0.882230 2.720359 0.655021 -0.914283 -2.709762 -0.697594 -1.224914 3.209056 -12.969601 4.688726 -1.682750 10.241392 0.000000 0.000000 0.000000 0.000000 0.000000 0.000000 5.238889 -1.035005 -35.004654 -4.514527 -2.288861 -2.017837 -16.976818 3.494877 1.811525 0.000000 0.000000 0.000000 -0.711713 -0.658291 -37.269386 1.247907 2.053191 0.686654 -1.681184 1.410563 -1.637838 0.000000 0.000000 0.000000
